<svg xmlns="http://www.w3.org/2000/svg" viewBox="0 0 271.47 79.56"><defs><style>.cls-1{fill:#e07f00;}</style></defs><g id="Layer_2" data-name="Layer 2"><g id="Vrstva_2" data-name="Vrstva 2"><path class="cls-1" d="M5.4,71.07a3.06,3.06,0,0,1,.26-1.22,2.94,2.94,0,0,1,5.4,0,3.06,3.06,0,0,1,.26,1.22,3,3,0,1,1-5.92,0M54,5.48a3,3,0,0,1,3,3,3.1,3.1,0,0,1-.26,1.22A3,3,0,1,1,54,5.48M11.06,63.05V49.88L54.81,35a2.74,2.74,0,0,0,1.84-2.6V16.51a8.36,8.36,0,1,0-5.4,0V30.43L7.5,45.31a2.74,2.74,0,0,0-1.84,2.6V63.05a8.5,8.5,0,0,0,2.7,16.51,8.5,8.5,0,0,0,2.7-16.51"/><path class="cls-1" d="M11.32,8.49a3.06,3.06,0,0,1-.26,1.22,2.94,2.94,0,0,1-5.4,0A2.93,2.93,0,0,1,5.4,8.49a3,3,0,1,1,5.92,0M31.15,20.55a3,3,0,0,1,0,6h-.29a3,3,0,0,1-2.66-3,3,3,0,0,1,.95-2.21,2.94,2.94,0,0,1,2-.79m-25.49-4v14.8a2.75,2.75,0,0,0,1.12,2.22,2.69,2.69,0,0,0,1.58.52,2.55,2.55,0,0,0,.86-.15l15.3-5.2A8.32,8.32,0,0,0,31.15,32,8.49,8.49,0,1,0,22.8,23.5l-11.74,4v-11a8.46,8.46,0,0,0,5.65-8A8.43,8.43,0,0,0,8.36,0a8.5,8.5,0,0,0-2.7,16.51"/><path class="cls-1" d="M51,71.07a2.9,2.9,0,0,1,.26-1.22,2.94,2.94,0,0,1,5.4,0,3.06,3.06,0,0,1,.26,1.22,3,3,0,1,1-5.92,0M31.15,59.76a3,3,0,0,1,0-6h.29A3,3,0,0,1,33.15,59a2.92,2.92,0,0,1-2,.79m25.5,3.29V49a2.73,2.73,0,0,0-1.13-2.22,2.67,2.67,0,0,0-2.43-.37l-15.31,5.2a8.32,8.32,0,0,0-6.63-3.34,8.49,8.49,0,1,0,8.36,8.54l11.74-4V63.05a8.35,8.35,0,1,0,5.4,0"/><path class="cls-1" d="M76.31,46.53a1.19,1.19,0,0,1,.52-.94,2.11,2.11,0,0,1,1.35-.41h4.37a13.38,13.38,0,0,1,3.54.4,6.39,6.39,0,0,1,2.34,1.13,4.32,4.32,0,0,1,1.29,1.75,6.13,6.13,0,0,1,.4,2.28v.2a4.22,4.22,0,0,1-.73,2.5,4.94,4.94,0,0,1-2.56,1.68l3.45,6.5a.88.88,0,0,1,.09,1,2.07,2.07,0,0,1-1,1,2,2,0,0,1-1.34.15,1.48,1.48,0,0,1-.93-.58l-3.47-6.88a4.45,4.45,0,0,1-.53,0h-3.2v6.19a1.14,1.14,0,0,1-.48.9,2.25,2.25,0,0,1-2.63-.07,1.3,1.3,0,0,1-.52-1ZM79.94,48v5.53h2.61a5.31,5.31,0,0,0,3-.66,2,2,0,0,0,.91-1.69v-.54a2.28,2.28,0,0,0-.91-1.93,5,5,0,0,0-3-.71Z"/><path class="cls-1" d="M108.88,45.59a1.48,1.48,0,0,1,.45,1.14,1.39,1.39,0,0,1-.45,1.07,1.87,1.87,0,0,1-1.32.42h-7v4.49h4.66a1.92,1.92,0,0,1,1.35.42,1.46,1.46,0,0,1,.45,1.13,1.37,1.37,0,0,1-.45,1.07,1.92,1.92,0,0,1-1.35.42h-4.66v4.73h7a1.87,1.87,0,0,1,1.32.41,1.46,1.46,0,0,1,.45,1.13,1.41,1.41,0,0,1-.45,1.08,1.91,1.91,0,0,1-1.32.41H98.84a2.13,2.13,0,0,1-1.35-.41,1.2,1.2,0,0,1-.51-.93V46.53a1.2,1.2,0,0,1,.51-.94,2.13,2.13,0,0,1,1.35-.41h8.72A1.91,1.91,0,0,1,108.88,45.59Z"/><path class="cls-1" d="M116.16,46.53a1.2,1.2,0,0,1,.51-.94,2.11,2.11,0,0,1,1.35-.41h4.07a11,11,0,0,1,3.38.46,6.56,6.56,0,0,1,2.36,1.27,5,5,0,0,1,1.36,1.91,6.26,6.26,0,0,1,.44,2.35v.31a5.52,5.52,0,0,1-.41,2.09,4.53,4.53,0,0,1-1.3,1.78,6.76,6.76,0,0,1-2.33,1.24,11.08,11.08,0,0,1-3.5.48h-2.3v5.38a1.21,1.21,0,0,1-.48.93,1.89,1.89,0,0,1-1.29.42,1.85,1.85,0,0,1-1.35-.49,1.39,1.39,0,0,1-.51-1ZM119.79,48v6.28h2.3a6.18,6.18,0,0,0,1.77-.23,4,4,0,0,0,1.22-.6,2.53,2.53,0,0,0,.72-.86,2.4,2.4,0,0,0,.23-1V51a2.69,2.69,0,0,0-.93-2.08,4.43,4.43,0,0,0-3-.85Z"/><path class="cls-1" d="M136.3,52.34a9.06,9.06,0,0,1,.47-2.94A6.38,6.38,0,0,1,138.19,47a6.63,6.63,0,0,1,2.44-1.57,10.88,10.88,0,0,1,7,0A6.67,6.67,0,0,1,150.09,47a6.19,6.19,0,0,1,1.45,2.36,9.06,9.06,0,0,1,.46,2.94v4a9.06,9.06,0,0,1-.46,2.94,6.19,6.19,0,0,1-1.45,2.36,6.67,6.67,0,0,1-2.45,1.57,10.88,10.88,0,0,1-7,0,6.63,6.63,0,0,1-2.44-1.57,6.38,6.38,0,0,1-1.42-2.36,9.06,9.06,0,0,1-.47-2.94Zm3.57,4A4.2,4.2,0,0,0,141,59.72a5.46,5.46,0,0,0,6.24,0,4.31,4.31,0,0,0,1.11-3.34v-4A4.29,4.29,0,0,0,147.26,49,5.46,5.46,0,0,0,141,49a4.19,4.19,0,0,0-1.15,3.34Z"/><path class="cls-1" d="M159.39,46.53a1.2,1.2,0,0,1,.51-.94,2.11,2.11,0,0,1,1.35-.41h4.38a13.35,13.35,0,0,1,3.53.4,6.36,6.36,0,0,1,2.35,1.13,4.32,4.32,0,0,1,1.29,1.75,6.34,6.34,0,0,1,.4,2.28v.2a4.22,4.22,0,0,1-.73,2.5,5,5,0,0,1-2.56,1.68l3.44,6.5a.9.9,0,0,1,.1,1,2.14,2.14,0,0,1-1,1,2,2,0,0,1-1.33.15,1.48,1.48,0,0,1-.93-.58l-3.48-6.88a4.28,4.28,0,0,1-.52,0H163v6.19a1.14,1.14,0,0,1-.48.9,2.27,2.27,0,0,1-2.64-.07,1.32,1.32,0,0,1-.51-1ZM163,48v5.53h2.61a5.3,5.3,0,0,0,3-.66,2,2,0,0,0,.92-1.69v-.54a2.29,2.29,0,0,0-.92-1.93,5,5,0,0,0-3-.71Z"/><path class="cls-1" d="M191.26,45.18a2,2,0,0,1,1.35.41,1.48,1.48,0,0,1,.45,1.14,1.39,1.39,0,0,1-.45,1.07,1.92,1.92,0,0,1-1.35.42H187.2V62.45a1.22,1.22,0,0,1-.49.93,1.88,1.88,0,0,1-1.28.42,2.06,2.06,0,0,1-1.37-.42,1.2,1.2,0,0,1-.5-.93V48.22H179.9a1.89,1.89,0,0,1-1.29-.42,1.35,1.35,0,0,1-.48-1.07,1.44,1.44,0,0,1,.48-1.14,1.94,1.94,0,0,1,1.29-.41Z"/><path class="cls-1" d="M87.21,17a1.46,1.46,0,0,1,.46,1.15,1.39,1.39,0,0,1-.46,1.08,2,2,0,0,1-1.35.42H78.72V24.2H83.5a2,2,0,0,1,1.38.42,1.46,1.46,0,0,1,.47,1.14,1.4,1.4,0,0,1-.47,1.09,2,2,0,0,1-1.38.42H78.72V32h7.14a2,2,0,0,1,1.35.42,1.48,1.48,0,0,1,.46,1.15,1.39,1.39,0,0,1-.46,1.08,2,2,0,0,1-1.35.42h-9a2.14,2.14,0,0,1-1.38-.42,1.2,1.2,0,0,1-.53-.94V17.94a1.22,1.22,0,0,1,.53-.94,2.14,2.14,0,0,1,1.38-.42h9A2,2,0,0,1,87.21,17Z"/><path class="cls-1" d="M93.15,17.65a1.2,1.2,0,0,1,.52-.94,2.17,2.17,0,0,1,1.39-.42,2,2,0,0,1,1.18.34,1.39,1.39,0,0,1,.6.76l8.57,11.38V17.65a1.22,1.22,0,0,1,.51-.94,2.14,2.14,0,0,1,1.4-.42,1.93,1.93,0,0,1,1.29.42,1.24,1.24,0,0,1,.5.94V34a1.22,1.22,0,0,1-.5.94,1.93,1.93,0,0,1-1.29.42,2.49,2.49,0,0,1-1.16-.24,1.41,1.41,0,0,1-.65-.65l-.1-.15L96.87,23.1V34a1.21,1.21,0,0,1-.49.94,2,2,0,0,1-1.32.42A2.17,2.17,0,0,1,93.67,35a1.19,1.19,0,0,1-.52-.94Z"/><path class="cls-1" d="M127.69,17a1.46,1.46,0,0,1,.46,1.15,1.39,1.39,0,0,1-.46,1.08,2,2,0,0,1-1.35.42H119.2V24.2H124a2,2,0,0,1,1.38.42,1.46,1.46,0,0,1,.47,1.14,1.4,1.4,0,0,1-.47,1.09,2,2,0,0,1-1.38.42H119.2V32h7.14a2,2,0,0,1,1.35.42,1.48,1.48,0,0,1,.46,1.15,1.39,1.39,0,0,1-.46,1.08,2,2,0,0,1-1.35.42h-9a2.15,2.15,0,0,1-1.39-.42,1.19,1.19,0,0,1-.52-.94V17.94A1.2,1.2,0,0,1,116,17a2.15,2.15,0,0,1,1.39-.42h9A2,2,0,0,1,127.69,17Z"/><path class="cls-1" d="M133.57,17.94a1.2,1.2,0,0,1,.52-.94,2.15,2.15,0,0,1,1.39-.42H140a14.07,14.07,0,0,1,3.63.41,6.39,6.39,0,0,1,2.4,1.14,4.33,4.33,0,0,1,1.33,1.77,6.2,6.2,0,0,1,.41,2.3v.2a4.28,4.28,0,0,1-.75,2.54,5.1,5.1,0,0,1-2.63,1.69l3.54,6.57a.9.9,0,0,1,.09,1,2.1,2.1,0,0,1-1,1,2.07,2.07,0,0,1-1.37.16,1.51,1.51,0,0,1-1-.59l-3.57-7a4.63,4.63,0,0,1-.54,0h-3.28V34.1a1.13,1.13,0,0,1-.49.91,2.07,2.07,0,0,1-1.32.39,2,2,0,0,1-1.39-.46,1.32,1.32,0,0,1-.52-1Zm3.72,1.54v5.59H140a5.52,5.52,0,0,0,3.1-.67,2,2,0,0,0,.94-1.71v-.55a2.29,2.29,0,0,0-.94-1.95,5.17,5.17,0,0,0-3.1-.71Z"/><path class="cls-1" d="M160.29,26.89a1.41,1.41,0,0,1,.46-1.09,1.77,1.77,0,0,1,1.23-.42h3.91a2.25,2.25,0,0,1,1.36.35,1.32,1.32,0,0,1,.46,1.13v5.65a7.16,7.16,0,0,1-.92,1.1,5.45,5.45,0,0,1-1.34.92,7.42,7.42,0,0,1-1.9.64,12.44,12.44,0,0,1-2.62.23,10.11,10.11,0,0,1-3.49-.55,7.45,7.45,0,0,1-2.55-1.5,6.26,6.26,0,0,1-1.56-2.23,7.09,7.09,0,0,1-.53-2.72V23.33a7.29,7.29,0,0,1,.51-2.71,6.05,6.05,0,0,1,1.53-2.24,7.35,7.35,0,0,1,2.52-1.52,9.71,9.71,0,0,1,3.47-.57,10.23,10.23,0,0,1,3.25.48,5.8,5.8,0,0,1,2.16,1.17,1.58,1.58,0,0,1,.56,1.13,1.18,1.18,0,0,1-.43.91,1.76,1.76,0,0,1-1.11.42,2.39,2.39,0,0,1-1.44-.37,5,5,0,0,0-1.41-.51,8.15,8.15,0,0,0-1.61-.19,5,5,0,0,0-3,.91,3.36,3.36,0,0,0-1.23,2.89v5.5a3.9,3.9,0,0,0,.33,1.66,3.11,3.11,0,0,0,.94,1.17,4.21,4.21,0,0,0,1.39.69,7.61,7.61,0,0,0,3.18.08,4,4,0,0,0,1.07-.39l.58-.38V28.4h-2a1.77,1.77,0,0,1-1.23-.42A1.41,1.41,0,0,1,160.29,26.89Z"/><path class="cls-1" d="M185.82,17a1.5,1.5,0,0,1,.46,1.15,1.42,1.42,0,0,1-.46,1.08,2,2,0,0,1-1.36.42h-7.13V24.2h4.78a2,2,0,0,1,1.38.42,1.46,1.46,0,0,1,.46,1.14,1.39,1.39,0,0,1-.46,1.09,2,2,0,0,1-1.38.42h-4.78V32h7.13a2,2,0,0,1,1.36.42,1.51,1.51,0,0,1,.46,1.15,1.42,1.42,0,0,1-.46,1.08,2,2,0,0,1-1.36.42h-9a2.14,2.14,0,0,1-1.38-.42,1.2,1.2,0,0,1-.53-.94V17.94a1.22,1.22,0,0,1,.53-.94,2.14,2.14,0,0,1,1.38-.42h9A2,2,0,0,1,185.82,17Z"/><path class="cls-1" d="M203.54,16.58a2,2,0,0,1,1.39.42,1.5,1.5,0,0,1,.46,1.15,1.42,1.42,0,0,1-.46,1.08,2,2,0,0,1-1.39.42h-4.17V34a1.24,1.24,0,0,1-.49.94,2,2,0,0,1-1.33.42,2.14,2.14,0,0,1-1.4-.42,1.2,1.2,0,0,1-.51-.94V19.65h-3.76a2,2,0,0,1-1.32-.42,1.35,1.35,0,0,1-.49-1.08,1.42,1.42,0,0,1,.49-1.15,2,2,0,0,1,1.32-.42Z"/><path class="cls-1" d="M209.88,17.65a1.22,1.22,0,0,1,.51-.94,2.14,2.14,0,0,1,1.4-.42,2,2,0,0,1,1.31.42,1.22,1.22,0,0,1,.51.94V34a1.2,1.2,0,0,1-.51.94,2,2,0,0,1-1.31.42,2.14,2.14,0,0,1-1.4-.42,1.2,1.2,0,0,1-.51-.94Z"/><path class="cls-1" d="M219.59,23.33a7.69,7.69,0,0,1,.48-2.71,6.19,6.19,0,0,1,1.43-2.24,6.91,6.91,0,0,1,2.36-1.52,8.52,8.52,0,0,1,3.22-.57,9.67,9.67,0,0,1,2.29.26,7.67,7.67,0,0,1,1.83.7,4,4,0,0,1,1.21,1,1.86,1.86,0,0,1,.43,1.16,1.08,1.08,0,0,1-.38.9,1.35,1.35,0,0,1-.89.32,3.48,3.48,0,0,1-1-.13,5.23,5.23,0,0,1-1-.45,5.75,5.75,0,0,0-1.1-.49,4.57,4.57,0,0,0-1.51-.21,3.93,3.93,0,0,0-2.63.93,3.55,3.55,0,0,0-1.1,2.87V28.6a3.51,3.51,0,0,0,1.1,2.85,4,4,0,0,0,2.63.91,6.58,6.58,0,0,0,1.48-.13,4,4,0,0,0,1.06-.39l.61-.33a2.47,2.47,0,0,1,.46-.2,2.09,2.09,0,0,1,.43-.11l.51,0a1.21,1.21,0,0,1,.94.33,1.18,1.18,0,0,1,.3.82,1.82,1.82,0,0,1-.43,1.16,3.67,3.67,0,0,1-1.21,1,7.67,7.67,0,0,1-1.83.68,9.17,9.17,0,0,1-2.29.26,8.73,8.73,0,0,1-3.22-.56,7.06,7.06,0,0,1-2.36-1.52,6.32,6.32,0,0,1-1.43-2.23,7.67,7.67,0,0,1-.48-2.72Z"/><path class="cls-1" d="M238.13,17.65a1.22,1.22,0,0,1,.51-.94,2.14,2.14,0,0,1,1.4-.42,2,2,0,0,1,1.31.42,1.22,1.22,0,0,1,.51.94v7h1L249,16.78a1.62,1.62,0,0,1,.49-.33,1.82,1.82,0,0,1,.67-.14,2.66,2.66,0,0,1,.74.07,1.84,1.84,0,0,1,.68.32,1.36,1.36,0,0,1,.56,1.17,1.54,1.54,0,0,1-.46,1.06l-5.71,6.92,6.47,7a1.06,1.06,0,0,1,.32,1A1.8,1.8,0,0,1,252,35a2,2,0,0,1-1.31.39,1.54,1.54,0,0,1-1.08-.45L243,27.58h-1.18V34a1.2,1.2,0,0,1-.51.94,2,2,0,0,1-1.31.42,2.14,2.14,0,0,1-1.4-.42,1.2,1.2,0,0,1-.51-.94Z"/><path class="cls-1" d="M261.57,28.19l-5.76-9.58a1,1,0,0,1-.19-1,1.57,1.57,0,0,1,.82-1,2.25,2.25,0,0,1,1.44-.3,1.61,1.61,0,0,1,1.05.5l4.59,8.2,4.61-8.2a1.63,1.63,0,0,1,1.05-.5,2.25,2.25,0,0,1,1.44.3,1.55,1.55,0,0,1,.81,1,1.11,1.11,0,0,1-.17,1l-6,9.9V34a1.22,1.22,0,0,1-.5.94,1.93,1.93,0,0,1-1.29.42,2.14,2.14,0,0,1-1.4-.42,1.2,1.2,0,0,1-.51-.94Zm2.26-13.92a1.13,1.13,0,0,1-.87-.08,1.51,1.51,0,0,1-.75-.68,1,1,0,0,1-.08-.91,1,1,0,0,1,.53-.59l4.49-2.17a1.41,1.41,0,0,1,1.24,0,2,2,0,0,1,.84.82,1.62,1.62,0,0,1,.16,1.1,1.1,1.1,0,0,1-.78.84Z"/></g></g></svg>